<?xml version="1.0" encoding="utf-8"?>
<!-- Generator: Adobe Illustrator 17.0.0, SVG Export Plug-In . SVG Version: 6.00 Build 0)  -->
<!DOCTYPE svg PUBLIC "-//W3C//DTD SVG 1.1//EN" "http://www.w3.org/Graphics/SVG/1.1/DTD/svg11.dtd">
<svg version="1.1" id="Layer_1" xmlns="http://www.w3.org/2000/svg" xmlns:xlink="http://www.w3.org/1999/xlink" x="0px" y="0px"
	 width="595.28px" height="841.89px" viewBox="0 0 595.28 841.89" enable-background="new 0 0 595.28 841.89" xml:space="preserve">
<g>
	<path fill="#202020" d="M528.391,420.945c0,127.44-103.312,230.751-230.752,230.751S66.888,548.385,66.888,420.945
		c0-127.441,103.311-230.752,230.751-230.752S528.391,293.505,528.391,420.945"/>
	<g>
		<path fill="#202020" d="M297.64,653.196c-62.037,0-120.36-24.158-164.226-68.024c-43.867-43.866-68.025-102.19-68.025-164.227
			c0-62.037,24.158-120.36,68.025-164.226c43.866-43.867,102.189-68.025,164.226-68.025c62.036,0,120.36,24.158,164.227,68.025
			c43.866,43.866,68.024,102.189,68.024,164.226c0,62.036-24.158,120.36-68.024,164.227S359.676,653.196,297.64,653.196z"/>
		<path fill="#FFFFFF" d="M297.64,190.194c127.44,0,230.751,103.311,230.751,230.751S425.08,651.696,297.64,651.696
			S66.889,548.385,66.889,420.945S170.2,190.194,297.64,190.194 M297.64,187.194c-31.555,0-62.167,6.181-90.987,18.371
			c-27.835,11.773-52.833,28.627-74.3,50.094c-21.466,21.466-38.32,46.464-50.094,74.3c-12.19,28.82-18.371,59.432-18.371,90.987
			s6.181,62.167,18.371,90.987c11.773,27.835,28.627,52.833,50.094,74.3s46.464,38.32,74.3,50.094
			c28.82,12.19,59.432,18.371,90.987,18.371s62.167-6.181,90.987-18.371c27.835-11.773,52.833-28.627,74.3-50.094
			s38.32-46.464,50.094-74.3c12.19-28.82,18.37-59.432,18.37-90.987s-6.181-62.167-18.37-90.987
			c-11.773-27.835-28.627-52.833-50.094-74.3c-21.466-21.466-46.464-38.32-74.3-50.094
			C359.807,193.375,329.195,187.194,297.64,187.194L297.64,187.194z"/>
	</g>
	<path fill="#FFFFFF" d="M363.01,383.846c-7.8-8.999-15.074-17.39-22.258-25.676c-18.468,22.717-55.883,30.059-83.293,0.568
		c-7.095,8.08-14.26,16.264-21.497,24.504c-0.006,0.007-0.006-0.008,0,0c22.237,25.393,22.697,46.703,1.604,77.343
		c-0.006,0.009-0.006,0.023,0.002,0.031c6.698,7.618,13.256,15.077,19.748,22.459c20.057-24.1,58.627-28.703,83.956,0.116
		c6.817-7.644,14.084-14.833,21.02-22.61c-20.654-23.891-19.592-55.757,0.717-76.688C363.022,383.88,363.022,383.861,363.01,383.846
		 M402.876,354.258l-7.935,7.403c-4.652,4.1-9.566,5.728-14.381,5.223c-4.816-0.505-9.534-3.144-13.795-7.577
		c-4.446-4.625-6.728-9.739-6.701-14.965c0.028-5.225,2.365-10.561,7.155-15.628c6.835-7.231,13.825-14.316,20.854-21.364
		c7.029-7.049,14.095-14.062,21.081-21.15c1.657-1.68,3.26-3.411,4.863-5.17c1.602-1.759,3.205-3.547,4.857-5.341
		c0.008-0.009,0.012-0.02,0.012-0.032c0-0.011-0.004-0.023-0.012-0.032c-2.368-2.588-4.595-5.022-6.892-7.533
		c-2.296-2.51-4.665-5.098-7.315-7.995c-0.017-0.018-0.039-0.028-0.062-0.028c-0.024-0.001-0.047,0.007-0.064,0.025
		c-9.29,9.539-18.322,18.813-27.23,27.961c-8.909,9.147-17.693,18.167-26.488,27.199v-39.298v-39.298h-11.058h-11.058v5.619v5.365
		c-0.002,12.821,0.047,25.643,0.061,38.465c0.014,12.821-0.006,25.642-0.148,38.462c-0.096,8.71-1.925,15.671-5.377,20.901
		c-3.451,5.23-8.525,8.73-15.11,10.519c-10.655,2.895-20.148,1.168-27.041-4.207c-6.892-5.375-11.186-14.399-11.442-26.1
		c-0.283-12.966-0.321-25.938-0.291-38.91c0.031-12.973,0.131-25.948,0.125-38.92c-0.001-1.776-0.001-3.552-0.001-5.368
		c0-1.815,0-3.669,0-5.601h-11.182h-11.183v39.86v39.862l-0.146-0.459l-53.385-55.186l-14.319,13.852l52.949,55.079
		c4.474,4.862,6.502,10.146,6.302,15.299c-0.2,5.152-2.628,10.174-7.068,14.512c-5.173,5.055-10.611,7.375-16.29,6.921
		c-5.68-0.454-11.6-3.683-17.739-9.727l-49.319-50.888l-14.977,14.49l48.408,50.484l0.34-0.008h-35.172h-35.171v10.628v10.628
		c13.081,0,26.018-0.029,38.881-0.034c12.864-0.004,25.654,0.015,38.444,0.11c3.05,0.023,6.119,0.114,9.178,0.316
		c3.06,0.203,6.11,0.518,9.121,0.99c7.064,1.109,13.272,4.654,17.726,9.709c4.453,5.056,7.151,11.621,7.193,18.77
		c0.052,8.889-2.803,16.229-8.104,21.39c-5.302,5.16-13.049,8.14-22.781,8.308c-13.271,0.229-26.543,0.268-39.818,0.253
		c-13.274-0.016-26.549-0.085-39.823-0.074c-1.601,0.001-3.203,0.002-4.866,0.001c-1.662,0-3.387-0.001-5.233-0.001v10.85v10.85
		h35.006h35.006c-7.999,7.696-15.991,15.387-24.045,23.136c-8.055,7.75-16.17,15.559-24.415,23.493
		c-0.013,0.012-0.019,0.028-0.019,0.044c-0.001,0.017,0.006,0.034,0.018,0.046c2.508,2.616,4.768,4.971,7.042,7.342
		c2.274,2.37,4.563,4.757,7.13,7.433c0.071,0.073,4.182-3.575,10.194-9.145c6.011-5.569,13.923-13.059,21.595-20.672
		c4.435-4.399,8.861-8.765,12.916-12.695c4.056-3.93,7.741-7.424,10.694-10.081c6.509-5.857,14.191-7.313,20.874-5.212
		c6.684,2.102,12.371,7.76,14.89,16.132c1.475,4.899,0.912,9.145-0.799,12.964c-1.712,3.818-4.572,7.21-7.692,10.398l-50.836,49.394
		l14.728,15.223l53.23-50.515l0.031-0.4l-0.081,74.384l22.167,0.146l1.315-95.934c0.504-7.558,3.57-13.679,8.373-17.954
		c4.802-4.275,11.342-6.704,18.794-6.877c9.773-0.228,17.434,2.395,22.693,7.726c5.26,5.332,8.118,13.372,8.285,23.977l-0.032-0.312
		l0.762,89.374l22.168-0.146l-0.226-78.963l54.644,56.259l13.84-13.412l-54.063-56.003c-4.132-4.727-6.04-9.743-5.946-14.64
		c0.095-4.898,2.192-9.678,6.072-13.935c4.928-5.407,10.566-7.998,16.491-7.742c5.925,0.256,12.137,3.358,18.213,9.336l-0.202-0.183
		l50.754,50.534l15.039-15.119l-47.881-47.628l34.782-0.156h35.236v-10.653v-10.654c-14.013,0-27.804,0.019-41.483,0.021
		c-13.678,0.001-27.245-0.015-40.812-0.087c-2.691-0.015-5.414-0.097-8.117-0.323c-2.703-0.227-5.385-0.597-7.998-1.185
		c-7.254-1.632-12.819-5.072-16.534-9.986s-5.579-11.302-5.432-18.833c0.144-7.366,2.344-13.636,6.332-18.394
		c3.989-4.758,9.766-8.005,17.064-9.323c2.947-0.533,5.939-0.912,8.944-1.164s6.024-0.376,9.022-0.399
		c11.614-0.088,23.228-0.103,34.843-0.101c11.615,0.002,23.229,0.022,34.844,0.003c1.596-0.003,3.193-0.069,4.78-0.151
		c1.588-0.083,3.167-0.182,4.73-0.251v-10.758v-10.76h-35.894l-35.457-0.104l0.137-0.123l48.54-46.958l-14.827-15.326l-48.54,46.958
		"/>
	<path fill="#202020" d="M363.009,383.893c-7.808-9.007-15.365-18.019-22.555-26.313c-24.749,25.541-56.208,27.392-83.293,0.569
		c-7.099,8.083-14.59,16.261-21.83,24.505c22.252,25.403,21.269,54.055,2.237,77.963c6.702,7.622,13.253,15.071,19.748,22.459
		c20.057-24.101,58.628-28.704,83.956,0.115c6.817-7.644,13.874-14.784,20.809-22.561
		C341.33,437.286,341.885,405.894,363.009,383.893"/>
	<path fill="#202020" stroke="#000000" stroke-width="0.5" stroke-miterlimit="10" d="M363.009,383.893
		c-7.808-9.007-15.365-18.019-22.555-26.313c-24.749,25.541-56.208,27.392-83.293,0.569c-7.099,8.083-14.59,16.261-21.83,24.505
		c22.252,25.403,21.269,54.055,2.237,77.963c6.702,7.622,13.253,15.071,19.748,22.459c20.057-24.101,58.628-28.704,83.956,0.115
		c6.817-7.644,13.874-14.784,20.809-22.561C341.33,437.286,341.885,405.894,363.009,383.893z"/>
</g>
</svg>
